<svg xmlns="http://www.w3.org/2000/svg" width="1180" height="610" viewBox="0 0 1180 610" role="img" aria-labelledby="title desc">
<title id="title">Bimbola Coker — business operations, data, and systems</title>
<desc id="desc">Animated terminal-style profile banner cycling through markup, TypeScript, SQL, signal, and system icons.</desc>
<defs>
  <linearGradient id="glow" x1="0" y1="0" x2="1" y2="1"><stop stop-color="#0891b2" stop-opacity=".22"/><stop offset="1" stop-color="#7c3aed" stop-opacity=".06"/></linearGradient>
  <pattern id="dots" width="18" height="18" patternUnits="userSpaceOnUse"><circle cx="2" cy="2" r="1.15" fill="#dbe7f0" opacity=".8"/><circle cx="11" cy="12" r=".8" fill="#dbe7f0" opacity=".45"/></pattern>
  <filter id="shadow" x="-20%" y="-20%" width="140%" height="140%"><feDropShadow dx="0" dy="14" stdDeviation="18" flood-color="#000" flood-opacity=".18"/></filter>
</defs>
<rect width="1180" height="610" rx="28" fill="#f8fafc"/><rect x="24" y="24" width="1132" height="562" rx="22" fill="#ffffff" stroke="#dbe4ee" filter="url(#shadow)"/><rect x="24" y="24" width="1132" height="562" rx="22" fill="url(#glow)" opacity=".8"/>
<path d="M24 84h1132" stroke="#dbe4ee"/><circle cx="54" cy="54" r="7" fill="#fb7185"/><circle cx="78" cy="54" r="7" fill="#fbbf24"/><circle cx="102" cy="54" r="7" fill="#10b981"/><text x="134" y="59" fill="#64748b" font-family="monospace" font-size="16">profile.sh --live</text><text x="1084" y="59" fill="#10b981" text-anchor="end" font-family="monospace" font-size="13">● LIVE</text>
<rect x="54" y="128" width="344" height="376" rx="18" fill="#eef2f7" stroke="#dbe4ee"/><rect x="54" y="128" width="344" height="376" rx="18" fill="url(#dots)"/><rect x="76" y="150" width="300" height="332" rx="12" fill="none" stroke="#7c3aed" stroke-opacity=".62" stroke-width="2"/><g transform="translate(78 154)">
      <g opacity="0"><animate attributeName="opacity" dur="12s" repeatCount="indefinite" values="0;1;1;0;0;1;1;0;0;1;1" keyTimes="0;0.08;0.22;0.30;0.44;0.52;0.66;0.74;0.88;0.96;1"/>
        <path d="M88 112 48 164l40 52M212 112l40 52-40 52" fill="none" stroke="#7c3aed" stroke-width="13" stroke-linecap="round" stroke-linejoin="round"/>
        <path d="m142 92-42 144" stroke="#10b981" stroke-width="10" stroke-linecap="round"/>
        <circle cx="150" cy="64" r="7" fill="#10b981"/><text x="150" y="302" text-anchor="middle" fill="#64748b" font-family="monospace" font-size="15" letter-spacing="3">MARKUP / 01</text>
      </g>
      <g opacity="0"><animate attributeName="opacity" dur="12s" repeatCount="indefinite" values="0;0;1;1;0;0;0;0;0;0;0" keyTimes="0;0.08;0.22;0.30;0.44;0.52;0.66;0.74;0.88;0.96;1"/>
        <path d="M116 82 72 118l44 36M184 82l44 36-44 36" fill="none" stroke="#7c3aed" stroke-width="13" stroke-linecap="round" stroke-linejoin="round"/>
        <path d="M146 68 124 170" stroke="#10b981" stroke-width="10" stroke-linecap="round"/>
        <path d="M82 218h160" stroke="#64748b" stroke-width="2" stroke-dasharray="3 10"/><text x="162" y="302" text-anchor="middle" fill="#64748b" font-family="monospace" font-size="15" letter-spacing="3">TYPESCRIPT / 02</text>
      </g>
      <g opacity="0"><animate attributeName="opacity" dur="12s" repeatCount="indefinite" values="0;0;0;0;1;1;0;0;0;0;0" keyTimes="0;0.08;0.22;0.30;0.44;0.52;0.66;0.74;0.88;0.96;1"/>
        <ellipse cx="150" cy="92" rx="76" ry="22" fill="none" stroke="#7c3aed" stroke-width="10"/><path d="M74 92v95c0 18 34 33 76 33s76-15 76-33V92M74 140c0 18 34 33 76 33s76-15 76-33" fill="none" stroke="#7c3aed" stroke-width="10"/><circle cx="102" cy="245" r="7" fill="#10b981"/><circle cx="130" cy="245" r="7" fill="#10b981" opacity=".7"/><circle cx="158" cy="245" r="7" fill="#10b981" opacity=".45"/><text x="150" y="302" text-anchor="middle" fill="#64748b" font-family="monospace" font-size="15" letter-spacing="3">SQL / 03</text>
      </g>
      <g opacity="0"><animate attributeName="opacity" dur="12s" repeatCount="indefinite" values="0;0;0;0;0;0;1;1;0;0;0" keyTimes="0;0.08;0.22;0.30;0.44;0.52;0.66;0.74;0.88;0.96;1"/>
        <path d="M68 206V130M68 206h184" stroke="#64748b" stroke-width="7" stroke-linecap="round"/><path d="m82 182 42-44 37 22 62-72" fill="none" stroke="#7c3aed" stroke-width="12" stroke-linecap="round" stroke-linejoin="round"/><circle cx="82" cy="182" r="8" fill="#10b981"/><circle cx="124" cy="138" r="8" fill="#10b981"/><circle cx="161" cy="160" r="8" fill="#10b981"/><circle cx="223" cy="88" r="8" fill="#10b981"/><text x="150" y="302" text-anchor="middle" fill="#64748b" font-family="monospace" font-size="15" letter-spacing="3">SIGNAL / 04</text>
      </g>
      <g opacity="0"><animate attributeName="opacity" dur="12s" repeatCount="indefinite" values="0;0;0;0;0;0;0;0;1;1;0" keyTimes="0;0.08;0.22;0.30;0.44;0.52;0.66;0.74;0.88;0.96;1"/>
        <circle cx="150" cy="148" r="72" fill="none" stroke="#7c3aed" stroke-width="10" stroke-dasharray="12 13"/><circle cx="150" cy="148" r="38" fill="none" stroke="#10b981" stroke-width="10"/><path d="M150 80v68l44 27" stroke="#10b981" stroke-width="10" stroke-linecap="round"/><text x="150" y="302" text-anchor="middle" fill="#64748b" font-family="monospace" font-size="15" letter-spacing="3">SYSTEM / 05</text>
      </g>
    </g><text x="78" y="526" fill="#7c3aed" font-family="monospace" font-size="12" letter-spacing="2">CODE.MAP / LIVE_MORPH</text>
<text x="458" y="136" fill="#0891b2" font-family="monospace" font-size="12" letter-spacing="2">SYSTEM.INFO</text><text x="458" y="180" fill="#64748b" font-family="monospace" font-size="14">NAME</text><text x="1082" y="180" fill="#0f172a" text-anchor="end" font-family="monospace" font-size="14">BIMBOLA COKER</text><path d="M458 192h624" stroke="#dbe4ee" stroke-dasharray="2 8"/>
<text x="458" y="230" fill="#64748b" font-family="monospace" font-size="14">ROLE</text><text x="1082" y="230" fill="#0f172a" text-anchor="end" font-family="monospace" font-size="14">BUSINESS SYSTEMS / DATA</text><path d="M458 242h624" stroke="#dbe4ee" stroke-dasharray="2 8"/>
<text x="458" y="280" fill="#64748b" font-family="monospace" font-size="14">FOCUS</text><text x="1082" y="280" fill="#0f172a" text-anchor="end" font-family="monospace" font-size="14">WORKFLOWS · KPIs · PRODUCTS</text><path d="M458 292h624" stroke="#dbe4ee" stroke-dasharray="2 8"/>
<text x="458" y="330" fill="#64748b" font-family="monospace" font-size="14">STACK</text><text x="1082" y="330" fill="#0f172a" text-anchor="end" font-family="monospace" font-size="14">SQL · TYPESCRIPT · REACT</text><path d="M458 342h624" stroke="#dbe4ee" stroke-dasharray="2 8"/>
<text x="458" y="380" fill="#64748b" font-family="monospace" font-size="14">STATUS</text><rect x="976" y="358" width="106" height="32" rx="16" fill="#10b981" fill-opacity=".18" stroke="#10b981" stroke-opacity=".45"/><circle cx="994" cy="374" r="5" fill="#10b981"/><text x="1008" y="379" fill="#10b981" font-family="monospace" font-size="12">BUILDING</text><path d="M458 402h624" stroke="#dbe4ee" stroke-dasharray="2 8"/>
<text x="458" y="444" fill="#0891b2" font-family="monospace" font-size="13">$ whoami</text><text x="458" y="476" fill="#0f172a" font-family="monospace" font-size="18">I make the work visible.</text><text x="458" y="510" fill="#64748b" font-family="monospace" font-size="13">business question → system → signal → decision</text>
</svg>